<svg width="24" height="25" viewBox="0 0 24 25" fill="none" xmlns="http://www.w3.org/2000/svg">
<path d="M8 15.2V17.2M12 11.2V17.2M16 7.19998V17.2M7.8 21.2H16.2C17.8802 21.2 18.7202 21.2 19.362 20.873C19.9265 20.5854 20.3854 20.1264 20.673 19.562C21 18.9202 21 18.0801 21 16.4V7.99998C21 6.31982 21 5.47975 20.673 4.83801C20.3854 4.27352 19.9265 3.81458 19.362 3.52696C18.7202 3.19998 17.8802 3.19998 16.2 3.19998H7.8C6.11984 3.19998 5.27976 3.19998 4.63803 3.52696C4.07354 3.81458 3.6146 4.27352 3.32698 4.83801C3 5.47975 3 6.31982 3 7.99998V16.4C3 18.0801 3 18.9202 3.32698 19.562C3.6146 20.1264 4.07354 20.5854 4.63803 20.873C5.27976 21.2 6.11984 21.2 7.8 21.2Z" stroke="white" stroke-width="2" stroke-linecap="round" stroke-linejoin="round"/>
</svg>
