<svg width="24" height="25" viewBox="0 0 24 25" fill="none" xmlns="http://www.w3.org/2000/svg">
<path d="M8 17.4H16M11.0177 3.16402L4.23539 8.43915C3.78202 8.79177 3.55534 8.96808 3.39203 9.18888C3.24737 9.38447 3.1396 9.60481 3.07403 9.83908C3 10.1035 3 10.3907 3 10.9651V18.2C3 19.3201 3 19.8802 3.21799 20.308C3.40973 20.6843 3.71569 20.9903 4.09202 21.182C4.51984 21.4 5.07989 21.4 6.2 21.4H17.8C18.9201 21.4 19.4802 21.4 19.908 21.182C20.2843 20.9903 20.5903 20.6843 20.782 20.308C21 19.8802 21 19.3201 21 18.2V10.9651C21 10.3907 21 10.1035 20.926 9.83908C20.8604 9.60481 20.7526 9.38447 20.608 9.18888C20.4447 8.96808 20.218 8.79177 19.7646 8.43915L12.9823 3.16402C12.631 2.89077 12.4553 2.75414 12.2613 2.70163C12.0902 2.65529 11.9098 2.65529 11.7387 2.70163C11.5447 2.75414 11.369 2.89077 11.0177 3.16402Z" stroke="#D0D5DD" stroke-width="2" stroke-linecap="round" stroke-linejoin="round"/>
</svg>
