<svg width="24" height="25" viewBox="0 0 24 25" fill="none" xmlns="http://www.w3.org/2000/svg">
<path d="M2 12.8L11.6422 17.6211C11.7734 17.6867 11.839 17.7195 11.9078 17.7324C11.9687 17.7438 12.0313 17.7438 12.0922 17.7324C12.161 17.7195 12.2266 17.6867 12.3578 17.6211L22 12.8M2 17.8L11.6422 22.6211C11.7734 22.6867 11.839 22.7195 11.9078 22.7324C11.9687 22.7438 12.0313 22.7438 12.0922 22.7324C12.161 22.7195 12.2266 22.6867 12.3578 22.6211L22 17.8M2 7.79999L11.6422 2.97888C11.7734 2.91329 11.839 2.88049 11.9078 2.86758C11.9687 2.85615 12.0313 2.85615 12.0922 2.86758C12.161 2.88049 12.2266 2.91329 12.3578 2.97888L22 7.79999L12.3578 12.6211C12.2266 12.6867 12.161 12.7195 12.0922 12.7324C12.0313 12.7438 11.9687 12.7438 11.9078 12.7324C11.839 12.7195 11.7734 12.6867 11.6422 12.6211L2 7.79999Z" stroke="#D0D5DD" stroke-width="2" stroke-linecap="round" stroke-linejoin="round"/>
</svg>
